<svg width="101" height="62" viewBox="0 0 101 62" fill="none" xmlns="http://www.w3.org/2000/svg">
<g id="Logo 1">
<g id="Group">
<path id="Vector" d="M93.3017 12.4694L92.1546 24.3843C91.905 26.4761 90.8317 28.4355 89.1711 29.8316L87.9378 30.8679C84.7682 33.5327 80.1737 33.2768 77.6769 30.2958C76.4738 28.8593 74.89 27.7867 73.0844 27.1847L68.4681 25.646C67.7616 25.4105 67.3333 24.755 67.3551 24.0364C67.3903 22.8286 68.6315 21.9281 69.7831 22.3112C76.5006 24.5506 68.7211 21.9572 76.3565 24.5024C67.5918 18.565 67.7933 18.7859 67.517 18.2965C67.4814 18.254 67.361 17.9949 67.316 17.7812C66.9199 16.0048 68.9924 14.5933 70.4549 15.5835C70.9119 15.8931 78.0953 20.7598 78.5359 21.0584C71.0678 12.1421 71.4387 12.5987 71.3436 12.4452C70.8119 11.5899 71.0867 10.4752 71.7417 9.92463C72.6135 9.12062 73.9206 9.17721 74.6187 10.011L81.8793 18.6799C77.3066 7.89505 77.5937 8.67957 77.5546 8.23972C77.4536 7.29067 78.1616 6.26172 79.2201 6.03153C80.0326 5.81691 80.9916 6.21326 81.3728 7.06643L85.7931 16.9818L87.2496 18.7208C87.7378 19.3039 88.7315 18.9661 88.8245 18.1854C89.0102 14.1252 88.9889 14.4821 89.0156 14.3088C89.3097 12.4444 90.6737 11.0599 91.3565 10.8784C92.3927 10.5407 93.4398 11.3131 93.3017 12.4694Z" fill="#F9CFAC"/>
<path id="Vector_2" d="M92.5436 10.9686L91.1811 24.5262C90.8929 26.0904 90.1448 27.5588 89.0378 28.7445C85.5513 32.4848 80.4355 32.1736 77.8248 29.0564C76.6212 27.6198 75.0374 26.5473 73.2323 25.9453C67.0698 23.9473 67.4297 24.0657 67.355 24.0361C67.3748 23.3632 67.7847 22.7191 68.4382 22.4063C68.8051 22.2306 69.0863 22.2148 69.4369 22.2343C72.8644 23.3196 76.3608 24.4985 76.3564 24.5022C76.7292 24.1887 76.7222 23.6277 76.342 23.3701C68.1585 17.8266 68.6363 18.1973 68.3868 17.8707C68.0135 17.4003 67.8887 16.6696 68.1412 16.021C68.2462 15.7482 68.4165 15.5091 68.4338 15.4939C69.0745 15.1652 69.8508 15.1746 70.4548 15.5833C71.2603 16.1291 77.6654 20.4682 78.5358 21.0582C70.8028 11.8253 71.4207 12.5842 71.2935 12.3618C71.1509 12.1054 71.0756 11.8143 71.0638 11.5698C71.044 11.2719 71.1118 10.9851 71.1162 10.9814C71.5331 9.31953 73.6155 8.81291 74.6186 10.0108L81.8792 18.6796C77.4431 8.21697 77.6738 8.76956 77.6491 8.69223C77.1881 7.38711 78.312 5.84946 79.8656 5.99206C79.9671 6.00401 79.5225 5.09356 85.1998 17.6891L86.6564 19.4282C87.0752 19.9285 88.0738 19.9124 88.5496 19.0847C88.869 18.5285 88.8348 17.9623 88.866 17.2808C89.0066 14.2145 88.9868 14.5777 89.0061 14.3757C89.116 13.5656 89.4458 12.7309 90.0116 11.9988C90.2508 11.6911 90.6647 11.2483 90.9806 11.0518C91.4098 10.7854 91.9079 10.7377 92.3307 10.8788C92.4451 10.915 92.5381 10.9662 92.5436 10.9686Z" fill="#FFE4CC"/>
<path id="Vector_3" d="M87.2296 28.6067C87.0375 28.7682 86.7588 28.7527 86.6073 28.572C84.4189 25.9589 84.6249 21.9851 87.087 19.3285C87.2583 19.1443 87.5376 19.1233 87.7128 19.2811C87.8886 19.4388 87.8925 19.7158 87.7217 19.8998C85.5681 22.2238 85.3883 25.7007 87.3034 27.9871C87.4544 28.1678 87.4217 28.4452 87.2296 28.6067Z" fill="#F9CFAC"/>
</g>
<path id="Vector_4" d="M9.58524 19.9164C10.6177 20.038 11.3541 20.3879 11.7944 20.9659C12.2347 21.5287 12.4548 22.2132 12.4548 23.0193C12.4548 23.5213 12.3789 24.0004 12.2271 24.4567C12.0753 24.8978 11.8931 25.2781 11.6805 25.5975C11.468 25.9017 11.2858 26.0995 11.1339 26.1908C10.5266 26.5862 8.67426 26.784 5.57693 26.784H1.15869V13.7789H6.51069C7.72536 13.7789 8.70466 13.8473 9.4486 13.9842C10.2078 14.1059 10.8227 14.3949 11.2933 14.8512C11.764 15.2923 11.9993 15.9692 11.9993 16.8818C11.9993 17.6728 11.802 18.3116 11.4072 18.7984C11.0277 19.2851 10.4203 19.6197 9.58524 19.8023V19.9164ZM7.76328 16.5396C7.61149 16.3875 7.42929 16.2962 7.2167 16.2658C7.01935 16.2202 6.70051 16.1973 6.26017 16.1973C5.81988 16.1973 5.48583 16.2049 5.25809 16.2202V19.0037H5.48583C5.56178 19.0037 5.88062 19.0037 6.44236 19.0037C7.00415 19.0037 7.37612 18.9657 7.55831 18.8896C7.69496 18.8288 7.81646 18.6691 7.92271 18.4105C8.0442 18.1519 8.1049 17.8705 8.1049 17.5663C8.1049 17.11 7.99103 16.7677 7.76328 16.5396ZM8.15045 24.1601C8.25675 24.0689 8.34027 23.9016 8.40097 23.6582C8.47692 23.3996 8.51484 23.141 8.51484 22.8824C8.51484 22.563 8.46929 22.2664 8.3782 21.9926C8.3023 21.7036 8.196 21.4983 8.05935 21.3766C7.92271 21.2397 7.72536 21.1484 7.46722 21.1028C7.22432 21.0572 6.80675 21.0343 6.21462 21.0343C5.83507 21.0343 5.51623 21.0419 5.25809 21.0572V24.3655C5.97172 24.3807 6.60941 24.3731 7.17115 24.3427C7.73293 24.297 8.05935 24.2362 8.15045 24.1601ZM21.3435 26.784L20.9791 25.3466C20.2807 26.4874 19.309 27.0578 18.0639 27.0578C17.0467 27.0578 16.2116 26.7764 15.5588 26.2136C14.9211 25.6356 14.6022 24.8294 14.6022 23.7951C14.6022 23.1562 14.7844 22.6011 15.1488 22.1295C15.5284 21.6428 16.0446 21.3005 16.6975 21.1028C17.5478 20.8594 18.8611 20.7225 20.6375 20.6921C20.6375 19.6882 20.5919 19.1558 20.5008 19.095C20.4249 19.0341 20.182 19.0037 19.772 19.0037C19.5139 19.0037 19.1571 19.0189 18.7016 19.0493C17.9728 19.0798 16.986 19.1634 15.7409 19.3003C15.6195 18.4789 15.5284 17.5967 15.4677 16.6537C16.2724 16.4864 17.115 16.3495 17.9956 16.243C18.8763 16.1213 19.6658 16.0605 20.3642 16.0605C21.5788 16.0605 22.4898 16.2658 23.0971 16.6765C23.7045 17.0719 24.0992 17.5967 24.2814 18.2508C24.4636 18.9049 24.5471 19.7338 24.5319 20.7377L24.5091 24.0917L24.5775 26.784H21.3435ZM19.3849 24.5024C19.7797 24.5024 20.1972 24.4263 20.6375 24.2742V22.5858H20.4553C19.3317 22.5858 18.7093 22.6467 18.5878 22.7684C18.5119 22.8444 18.4511 22.9585 18.4056 23.1106C18.3752 23.2627 18.36 23.4072 18.36 23.5441C18.36 23.9092 18.4435 24.1601 18.6105 24.297C18.7776 24.4339 19.0357 24.5024 19.3849 24.5024ZM37.5637 16.9503C37.7004 17.1176 37.7991 17.5359 37.8598 18.2052C37.9357 18.8744 37.9737 19.8935 37.9737 21.2625V26.784H34.0792V21.3081V20.3727C34.0792 19.886 34.0413 19.5817 33.9654 19.46C33.8439 19.3079 33.563 19.2319 33.1227 19.2319C32.9102 19.2319 32.7507 19.2395 32.6444 19.2547C32.2193 19.2699 31.779 19.3688 31.3235 19.5513V26.784H27.4291V16.2886H30.5947L31.0274 18.0454C32.1206 16.7221 33.4264 16.0605 34.9447 16.0605C35.4912 16.0605 35.9999 16.1365 36.4706 16.2886C36.9564 16.4407 37.3208 16.6613 37.5637 16.9503ZM45.7396 22.4718C45.7396 22.7455 45.7472 23.0346 45.7624 23.3388C45.7775 23.6278 45.8231 23.8103 45.899 23.8863C46.0053 23.9928 46.3773 24.0461 47.015 24.0461L47.7893 24.0232C47.926 24.7533 47.9943 25.5975 47.9943 26.5558C47.7058 26.6623 47.2807 26.7612 46.7189 26.8524C46.1723 26.9437 45.6485 26.9893 45.1475 26.9893C44.0999 26.9893 43.2876 26.7612 42.7106 26.3048C42.1488 25.8333 41.868 25.1108 41.868 24.1373V18.5246H40.1599V16.4483L41.868 16.2886L42.8928 13.7789L45.7396 13.6191V16.2886H48.1537V18.5246H45.7396V22.4718ZM60.9335 16.2886V26.784H57.7679L57.3352 25.0271C56.242 26.3505 54.9359 27.0121 53.418 27.0121C52.8714 27.0121 52.355 26.9361 51.8693 26.784C51.3984 26.6319 51.0415 26.4113 50.7989 26.1223C50.6622 25.955 50.5558 25.5367 50.48 24.8674C50.4191 24.1982 50.3889 23.179 50.3889 21.8101V16.2886H54.2834V21.7645C54.2834 22.0687 54.2908 22.4261 54.3062 22.8368C54.321 23.2475 54.3666 23.5061 54.4428 23.6125C54.5488 23.7647 54.8527 23.8407 55.3538 23.8407L55.7182 23.8179C56.143 23.8027 56.5836 23.7038 57.0391 23.5213V16.2886H60.9335Z" fill="#4D4343"/>
<path id="Vector_5" d="M22.43 37.7521L19.6015 54.5357L12.7359 54.681L11.2612 45.9865L9.78659 54.0516L2.92097 54.2936L0.0683594 37.7521L6.0637 37.2193L7.27244 47.2701L8.89215 37.2193H13.6062L15.4918 47.3912L16.4588 37.2193L22.43 37.7521ZM38.7165 53.5184L32.7211 54.2936L31.9959 51.5567H29.24L28.6356 54.2936L22.4711 53.688L27.2818 37.5584L34.0024 37.2193L38.7165 53.5184ZM31.5608 47.8514L30.6421 43.6373L29.7477 47.8514H31.5608ZM54.3743 42.8865C54.3743 43.5162 54.3179 44.0894 54.205 44.606C54.1005 45.1146 53.9312 45.5829 53.6975 46.0108C53.4638 46.4386 53.1618 46.8342 52.791 47.1974C52.4202 47.5607 51.9731 47.9078 51.4493 48.2389L54.3263 53.373L48.8868 54.4389L47.0253 49.2803L45.5265 49.3287L45.3089 54.366H40.1114C40.1517 52.5254 40.1879 50.6931 40.2201 48.8686C40.2604 47.0441 40.3047 45.2115 40.3531 43.3709C40.3692 42.4425 40.3853 41.5222 40.4014 40.61C40.4176 39.6977 40.4498 38.7774 40.4982 37.849C41.0622 37.6391 41.6182 37.4656 42.1662 37.3283C42.7142 37.1911 43.2621 37.0861 43.8101 37.0135C44.3661 36.9328 44.9261 36.8803 45.4902 36.856C46.0624 36.8237 46.6466 36.8076 47.2429 36.8076C48.1615 36.8076 49.0479 36.9368 49.9021 37.1951C50.7646 37.4454 51.526 37.8248 52.1865 38.3334C52.8475 38.842 53.3752 39.4757 53.7698 40.2346C54.1728 40.9934 54.3743 41.8774 54.3743 42.8865ZM48.9593 43.274C48.9593 42.935 48.9109 42.6242 48.8142 42.3416C48.7256 42.059 48.5886 41.8169 48.4033 41.615C48.226 41.4051 48.0003 41.2437 47.7264 41.1307C47.4605 41.0096 47.1462 40.949 46.7836 40.949C46.6224 40.949 46.4653 40.9611 46.3122 40.9853C46.1591 41.0015 46.01 41.0298 45.8649 41.0701L45.6716 45.5748H45.9616C46.3081 45.5748 46.6587 45.5304 47.0132 45.4416C47.3759 45.3528 47.6982 45.2156 47.9802 45.0299C48.2703 44.8442 48.504 44.606 48.6813 44.3154C48.8666 44.0248 48.9593 43.6777 48.9593 43.274ZM71.072 51.8473C70.6933 52.324 70.2259 52.7396 69.6699 53.0948C69.1139 53.4499 68.5173 53.7445 67.8806 53.9786C67.2444 54.2128 66.5914 54.3903 65.9225 54.5113C65.2536 54.6244 64.6174 54.681 64.0129 54.681C62.8445 54.681 61.7686 54.4831 60.7854 54.0878C59.8026 53.692 58.9525 53.1434 58.2351 52.441C57.5261 51.7303 56.9701 50.8866 56.5671 49.91C56.1641 48.9331 55.9626 47.8675 55.9626 46.7131C55.9626 45.8331 56.0636 44.9774 56.2651 44.1459C56.4661 43.3144 56.7523 42.5353 57.1231 41.8088C57.5019 41.0822 57.9613 40.4162 58.501 39.8108C59.0411 39.2053 59.6536 38.6846 60.3383 38.2486C61.0235 37.8127 61.7726 37.4777 62.5865 37.2436C63.4084 37.0014 64.2788 36.8803 65.1977 36.8803C65.5437 36.8803 65.9146 36.8964 66.3097 36.9287C66.7043 36.9529 67.0954 37.0014 67.4821 37.074C67.8766 37.1386 68.2594 37.2315 68.6302 37.3525C69.001 37.4736 69.3392 37.623 69.6456 37.8006L69.307 42.4264C68.8559 42.2568 68.3886 42.1438 67.9049 42.0873C67.4296 42.0227 66.9622 41.9904 66.5028 41.9904C65.8581 41.9904 65.2536 42.0792 64.6897 42.2568C64.1337 42.4264 63.646 42.6807 63.2272 43.0197C62.8163 43.3588 62.49 43.7826 62.2484 44.2912C62.0063 44.7998 61.8855 45.3891 61.8855 46.0592C61.8855 46.479 61.9419 46.8866 62.0548 47.2822C62.1677 47.6697 62.337 48.0169 62.5623 48.3236C62.796 48.6223 63.0821 48.8645 63.4208 49.0502C63.7673 49.2359 64.1659 49.3287 64.6174 49.3287C64.9234 49.3287 65.2378 49.2883 65.5601 49.2076C65.8903 49.1269 66.1725 48.9896 66.4062 48.7959L66.4547 47.8514L63.5535 47.8029L63.6985 44.1701C64.8991 44.1298 66.0997 44.0974 67.3008 44.0732C68.5015 44.0409 69.71 44.0006 70.9269 43.9521L71.072 51.8473ZM88.4826 53.5184L82.487 54.2936L81.7622 51.5567H79.006L78.4014 54.2936L72.237 53.688L77.0478 37.5584L83.7683 37.2193L88.4826 53.5184ZM81.327 47.8514L80.4081 43.6373L79.5139 47.8514H81.327Z" fill="#5669FF"/>
</g>
</svg>
